# xmcd CD database file
#
# Track frame offsets:
#	150
#	9422
#	31866
#	47471
#	70799
#	85970
#	97971
#	120591
#	147168
#	158953
#	171907
#	184340
#	198399
#	217098
#	242544
#	264305
#	276233
#	294778
#	310424
#	334756
#
# Disc length: 4727 seconds
#
# Revision: 5
# Processed by: cddbd v1.5.1PL0 Copyright (c) Steve Scherf et al.
# Submitted via: CDex 1.51
#
DISCID=19127514
DTITLE=Various Artist - The Very Best of Smooth Jazz - CD1 of 2
DYEAR=2002
DGENRE=Jazz
TTITLE0=Bill Withers - Ain't No Sunshine
TTITLE1=Groover Washington Jr and Bill Withers - Just The Two of Us
TTITLE2=Earth, Wind and Fire - After The Love Has Gone
TTITLE3=Astrud Gilberto and Stan Getz - The Girl From Ipanema
TTITLE4=George Benson - Walk On By
TTITLE5=The Temptations - My Girl
TTITLE6=Luther Vandross - Goin' Out of My Head
TTITLE7=Lionel Richie - Love Will Find a Way
TTITLE8=Tamba Trio - Mas Que Nada
TTITLE9=Nina Simone - Feelin Good
TTITLE10=Dinah Washington - Mad About The Boy
TTITLE11=Hill St.Soul - Until You Come Back to Me
TTITLE12=Frank McComb - Wasting Your Time
TTITLE13=Bob James - Angela
TTITLE14=Larry Carlton - Minute by Minute
TTITLE15=Sarah Vaughan - Make Yourself Comfortable
TTITLE16=Freddie Ravel - Sunny Side Up
TTITLE17=Richard Ravel - Crush
TTITLE18=David Benoit - Miles After Dark
TTITLE19=Christian McBride - Aja
EXTD=YEAR: 2002
EXTT0=
EXTT1=
EXTT2=
EXTT3=
EXTT4=
EXTT5=
EXTT6=
EXTT7=
EXTT8=
EXTT9=
EXTT10=
EXTT11=
EXTT12=
EXTT13=
EXTT14=
EXTT15=
EXTT16=
EXTT17=
EXTT18=
EXTT19=
PLAYORDER=
